<?xml version="1.0" standalone="no"?>
<!DOCTYPE svg PUBLIC "-//W3C//DTD SVG 20010904//EN"
 "http://www.w3.org/TR/2001/REC-SVG-20010904/DTD/svg10.dtd">
<svg version="1.0" xmlns="http://www.w3.org/2000/svg"
 width="512.000000pt" height="512.000000pt" viewBox="0 0 512.000000 512.000000"
 preserveAspectRatio="xMidYMid meet">

<g transform="translate(0.000000,512.000000) scale(0.100000,-0.100000)"
fill="#000000" stroke="none">
<path d="M2520 3914 c-93 -36 -90 -33 -557 -607 -310 -383 -461 -561 -472
-559 -9 2 -45 5 -81 5 -68 1 -112 -14 -158 -57 -13 -11 -256 -319 -539 -684
l-516 -662 -78 0 c-72 0 -79 -2 -98 -26 -28 -35 -26 -69 4 -99 l24 -25 2511 0
2511 0 24 25 c30 29 32 64 5 98 -19 24 -29 26 -97 29 l-77 3 -557 929 c-307
510 -568 939 -580 952 -38 40 -106 67 -170 67 -48 0 -73 -7 -152 -45 l-94 -46
-329 330 c-183 183 -346 338 -368 350 -39 20 -128 33 -156 22z m426 -485 l331
-331 -18 -62 c-25 -80 -24 -102 6 -131 55 -56 110 -19 138 91 l19 71 97 47
c88 42 100 45 129 35 29 -10 84 -98 564 -898 292 -487 533 -889 535 -893 2 -5
-103 -8 -234 -8 l-239 0 -519 451 c-286 248 -529 459 -539 469 -19 19 -18 22
32 195 53 182 55 204 18 235 -24 19 -74 17 -95 -6 -11 -10 -36 -77 -56 -149
-20 -71 -40 -133 -44 -137 -3 -4 -125 97 -271 224 -146 127 -283 239 -305 249
-48 22 -142 25 -189 5 -18 -7 -115 -82 -216 -166 l-183 -153 -76 32 c-42 18
-100 42 -128 54 -29 12 -53 24 -53 27 1 13 865 1066 884 1078 50 29 67 16 412
-329z m284 -1370 c437 -380 799 -695 805 -700 5 -6 -293 -8 -750 -7 l-759 3
-238 510 c-130 281 -246 529 -257 552 l-20 41 175 146 c156 130 179 146 212
146 35 0 87 -43 832 -691z m-1596 461 c116 -50 216 -94 222 -98 8 -5 468 -977
501 -1059 4 -10 -134 -13 -671 -13 -372 0 -676 3 -676 6 0 4 77 145 170 313
103 186 170 317 170 334 0 57 -85 92 -122 50 -9 -10 -98 -166 -199 -348 -100
-181 -187 -336 -194 -343 -8 -9 -62 -12 -228 -10 l-216 3 470 605 c258 333
481 615 495 628 14 12 34 22 46 22 11 0 116 -41 232 -90z"/>
</g>
</svg>
